<svg width="133" height="117" fill="none" xmlns="http://www.w3.org/2000/svg"><path opacity=".18" d="M73.674 1.423a37.07 37.07 0 00-4.945 1.243c-10.724 3.498-31.098 8.918-39.046 16.9-9.215 9.274-6.388 21.48-15.642 30.7C6.376 57.892-.019 65.36 0 76.933c.031 20.393 17.645 27.48 34.114 32.618 19.511 6.079 40.262 8.875 60.608 6.098 8.627-1.176 17.335-3.439 24.374-8.557 10.528-7.648 15.59-21.688 13.402-34.387-1.11-6.444-3.051-12.267-3.58-18.888-.69-8.627.765-17.483-1.768-25.919-4.412-14.695-19.849-23.53-34.953-26.206-6.11-1.09-12.438-1.376-18.523-.27z" fill="#FFD21C"/></svg>