<svg width="144" height="27" fill="none" xmlns="http://www.w3.org/2000/svg"><path d="M21.727 22H17.01l-1.875-4.878H6.55L4.778 22h-4.6L8.544.525h4.585L21.727 22zm-7.984-8.496l-2.959-7.969-2.9 7.969h5.86zM28.614.525h4.336v9.141c.967-.098 1.621-.347 1.963-.747.342-.4.87-1.514 1.582-3.34.899-2.324 1.802-3.77 2.71-4.336.898-.566 2.349-.85 4.35-.85.098 0 .308-.004.63-.014v3.208l-.615-.015c-.888 0-1.538.113-1.948.337-.41.215-.742.547-.996.996-.254.45-.63 1.372-1.128 2.769-.264.742-.552 1.362-.864 1.86-.303.498-.845.967-1.626 1.406.967.274 1.762.826 2.387 1.656.635.83 1.329 2.002 2.08 3.515L44.406 22h-5.097l-2.564-5.552a12.08 12.08 0 00-.249-.454c-.049-.078-.23-.415-.542-1.01-.556-1.055-1.016-1.714-1.377-1.978-.351-.264-.893-.4-1.626-.41V22h-4.336V.525zm22.81 0h4.337v9.141c.966-.098 1.62-.347 1.963-.747.341-.4.869-1.514 1.582-3.34.898-2.324 1.801-3.77 2.71-4.336.898-.566 2.348-.85 4.35-.85.098 0 .308-.004.63-.014v3.208l-.615-.015c-.889 0-1.538.113-1.948.337-.41.215-.743.547-.997.996-.253.45-.63 1.372-1.127 2.769-.264.742-.552 1.362-.865 1.86-.302.498-.844.967-1.626 1.406.967.274 1.763.826 2.388 1.656.635.83 1.328 2.002 2.08 3.515L67.216 22h-5.098l-2.563-5.552c-.04-.078-.122-.23-.25-.454a30.48 30.48 0 01-.541-1.01c-.557-1.055-1.016-1.714-1.377-1.978-.352-.264-.894-.4-1.626-.41V22h-4.336V.525zm21.86 10.87c0-2.188.326-4.024.98-5.508a10.18 10.18 0 011.993-2.945c.85-.869 1.777-1.513 2.783-1.933 1.338-.567 2.88-.85 4.629-.85 3.164 0 5.693.982 7.588 2.945 1.904 1.962 2.856 4.692 2.856 8.188 0 3.467-.942 6.182-2.827 8.144-1.885 1.954-4.404 2.93-7.558 2.93-3.194 0-5.733-.971-7.618-2.915-1.884-1.953-2.827-4.639-2.827-8.056zm4.467-.147c0 2.432.561 4.277 1.684 5.537 1.124 1.25 2.55 1.875 4.278 1.875 1.728 0 3.144-.62 4.248-1.86 1.113-1.25 1.67-3.12 1.67-5.61 0-2.461-.542-4.297-1.626-5.508C86.93 4.47 85.5 3.865 83.713 3.865s-3.228.615-4.321 1.846c-1.094 1.22-1.641 3.066-1.641 5.537zM102.012 22V.525h6.958c2.636 0 4.355.108 5.156.323 1.23.322 2.261 1.025 3.091 2.109.83 1.074 1.245 2.466 1.245 4.175 0 1.318-.239 2.427-.718 3.325-.478.898-1.089 1.606-1.831 2.124-.732.508-1.479.845-2.241 1.01-1.035.206-2.534.308-4.497.308h-2.827V22h-4.336zm4.336-17.842v6.094h2.373c1.709 0 2.851-.112 3.427-.337a2.8 2.8 0 001.348-1.055c.332-.478.498-1.035.498-1.67 0-.78-.229-1.425-.688-1.933a2.998 2.998 0 00-1.744-.952c-.517-.098-1.557-.147-3.12-.147h-2.094zM126.346.525h14.839v17.872h1.889v8.29h-3.603V22H125.95v4.688h-3.603v-8.291h1.816c.889-1.836 1.475-3.965 1.758-6.387.283-2.432.425-5.503.425-9.214V.526zm4.131 3.604c0 6.523-.591 11.28-1.773 14.267h8.159V4.13h-6.386z" fill="#252533"/></svg>