<svg width="133" height="117" viewBox="0 0 133 117" fill="none" xmlns="http://www.w3.org/2000/svg">
<path opacity="0.18" d="M73.6736 1.42281C71.9989 1.72327 70.3468 2.13866 68.7291 2.66603C58.0049 6.16431 37.6308 11.5843 29.6828 19.5652C20.4682 28.8403 23.2953 41.0451 14.0415 50.2653C6.3757 57.8933 -0.0196216 65.3605 -1.60775e-05 76.9338C0.0313528 97.3273 17.645 104.414 34.1136 109.552C53.625 115.631 74.3755 118.427 94.7221 115.65C103.349 114.474 112.057 112.211 119.096 107.093C129.624 99.4451 134.686 85.405 132.498 72.7061C131.388 66.2625 129.447 60.4386 128.918 53.8185C128.228 45.1905 129.683 36.335 127.15 27.8991C122.738 13.204 107.301 4.36811 92.197 1.69342C86.0879 0.603147 79.7592 0.316853 73.6736 1.42281Z" fill="#FFD21C"/>
</svg>
