<svg width="144" height="27" viewBox="0 0 144 27" fill="none" xmlns="http://www.w3.org/2000/svg">
<path d="M21.7266 22H17.0098L15.1348 17.1221H6.55078L4.77832 22H0.178711L8.54297 0.525391H13.1279L21.7266 22ZM13.7432 13.5039L10.7842 5.53516L7.88379 13.5039H13.7432ZM28.6143 0.525391H32.9502V9.66602C33.917 9.56836 34.5713 9.31934 34.9131 8.91895C35.2549 8.51855 35.7822 7.40527 36.4951 5.5791C37.3936 3.25488 38.2969 1.80957 39.2051 1.24316C40.1035 0.676758 41.5537 0.393555 43.5557 0.393555C43.6533 0.393555 43.8633 0.388672 44.1855 0.378906V3.58691L43.5703 3.57227C42.6816 3.57227 42.0322 3.68457 41.6221 3.90918C41.2119 4.12402 40.8799 4.45605 40.626 4.90527C40.3721 5.35449 39.9961 6.27734 39.498 7.67383C39.2344 8.41602 38.9463 9.03613 38.6338 9.53418C38.3311 10.0322 37.7891 10.501 37.0078 10.9404C37.9746 11.2139 38.7705 11.7656 39.3955 12.5957C40.0303 13.4258 40.7236 14.5977 41.4756 16.1113L44.4053 22H39.3076L36.7441 16.4482C36.7051 16.3701 36.6221 16.2188 36.4951 15.9941C36.4463 15.916 36.2656 15.5791 35.9531 14.9834C35.3965 13.9287 34.9375 13.2695 34.5762 13.0059C34.2246 12.7422 33.6826 12.6055 32.9502 12.5957V22H28.6143V0.525391ZM51.4248 0.525391H55.7607V9.66602C56.7275 9.56836 57.3818 9.31934 57.7236 8.91895C58.0654 8.51855 58.5928 7.40527 59.3057 5.5791C60.2041 3.25488 61.1074 1.80957 62.0156 1.24316C62.9141 0.676758 64.3643 0.393555 66.3662 0.393555C66.4639 0.393555 66.6738 0.388672 66.9961 0.378906V3.58691L66.3809 3.57227C65.4922 3.57227 64.8428 3.68457 64.4326 3.90918C64.0225 4.12402 63.6904 4.45605 63.4365 4.90527C63.1826 5.35449 62.8066 6.27734 62.3086 7.67383C62.0449 8.41602 61.7568 9.03613 61.4443 9.53418C61.1416 10.0322 60.5996 10.501 59.8184 10.9404C60.7852 11.2139 61.5811 11.7656 62.2061 12.5957C62.8408 13.4258 63.5342 14.5977 64.2861 16.1113L67.2158 22H62.1182L59.5547 16.4482C59.5156 16.3701 59.4326 16.2188 59.3057 15.9941C59.2568 15.916 59.0762 15.5791 58.7637 14.9834C58.207 13.9287 57.748 13.2695 57.3867 13.0059C57.0352 12.7422 56.4932 12.6055 55.7607 12.5957V22H51.4248V0.525391ZM73.2832 11.3945C73.2832 9.20703 73.6104 7.37109 74.2646 5.88672C74.7529 4.79297 75.417 3.81152 76.2568 2.94238C77.1064 2.07324 78.0342 1.42871 79.04 1.00879C80.3779 0.442383 81.9209 0.15918 83.6689 0.15918C86.833 0.15918 89.3623 1.14062 91.2568 3.10352C93.1611 5.06641 94.1133 7.7959 94.1133 11.292C94.1133 14.7588 93.1709 17.4736 91.2861 19.4365C89.4014 21.3896 86.8818 22.3662 83.7275 22.3662C80.5342 22.3662 77.9951 21.3945 76.1104 19.4512C74.2256 17.498 73.2832 14.8125 73.2832 11.3945ZM77.751 11.248C77.751 13.6797 78.3125 15.5254 79.4355 16.7852C80.5586 18.0352 81.9844 18.6602 83.7129 18.6602C85.4414 18.6602 86.8574 18.04 87.9609 16.7998C89.0742 15.5498 89.6309 13.6797 89.6309 11.1895C89.6309 8.72852 89.0889 6.89258 88.0049 5.68164C86.9307 4.4707 85.5 3.86523 83.7129 3.86523C81.9258 3.86523 80.4854 4.48047 79.3916 5.71094C78.2979 6.93164 77.751 8.77734 77.751 11.248ZM102.012 22V0.525391H108.97C111.606 0.525391 113.325 0.632812 114.126 0.847656C115.356 1.16992 116.387 1.87305 117.217 2.95703C118.047 4.03125 118.462 5.42285 118.462 7.13184C118.462 8.4502 118.223 9.55859 117.744 10.457C117.266 11.3555 116.655 12.0635 115.913 12.5811C115.181 13.0889 114.434 13.4258 113.672 13.5918C112.637 13.7969 111.138 13.8994 109.175 13.8994H106.348V22H102.012ZM106.348 4.1582V10.252H108.721C110.43 10.252 111.572 10.1396 112.148 9.91504C112.725 9.69043 113.174 9.33887 113.496 8.86035C113.828 8.38184 113.994 7.8252 113.994 7.19043C113.994 6.40918 113.765 5.76465 113.306 5.25684C112.847 4.74902 112.266 4.43164 111.562 4.30469C111.045 4.20703 110.005 4.1582 108.442 4.1582H106.348ZM126.346 0.525391H141.185V18.3965H143.074V26.6875H139.471V22H125.95V26.6875H122.347V18.3965H124.163C125.052 16.5605 125.638 14.4316 125.921 12.0098C126.204 9.57812 126.346 6.50684 126.346 2.7959V0.525391ZM130.477 4.12891C130.477 10.6523 129.886 15.4082 128.704 18.3965H136.863V4.12891H130.477Z" fill="#252533"/>
</svg>
